# xmcd
#
# Track frame offsets:
#	150
#	3089
#	17784
#	38802
#	57094
#	75096
#	87240
#	104345
#	114889
#	132142
#	150970
#	172365
#	188686
#	199985
#	219439
#	233251
#
# Disc length: 3177 seconds
#
# Revision: 1
# Processed by: cddbd v1.5.1PL2 Copyright (c) Steve Scherf et al.
# Submitted via: audiograbber 1.83.01
#
DISCID=b40c6710
DTITLE=Adèle Bloemendaal - Samen solo CD 2
DYEAR=2006
DGENRE=Cabaret
TTITLE0=Neuken
TTITLE1=Die goeie ouwe tijd
TTITLE2=Wandelwagen
TTITLE3=De jaren zestig
TTITLE4=Mijn lichaam
TTITLE5=Vleselijke woning
TTITLE6=Gorilla
TTITLE7=Lelijkheid IV
TTITLE8=Lelijkheid I
TTITLE9=Bokken en schapen
TTITLE10=Sex hooligans
TTITLE11=Er zijn mannen
TTITLE12=Vingelied
TTITLE13=Amsterdam
TTITLE14=Het zwarte schaap
TTITLE15=Ik kan dansen
EXTD=
EXTT0=
EXTT1=
EXTT2=
EXTT3=
EXTT4=
EXTT5=
EXTT6=
EXTT7=
EXTT8=
EXTT9=
EXTT10=
EXTT11=
EXTT12=
EXTT13=
EXTT14=
EXTT15=
PLAYORDER=
